<mxfile host="app.diagrams.net" modified="2022-03-18T02:30:27.186Z" agent="5.0 (Windows NT 10.0; Win64; x64) AppleWebKit/537.36 (KHTML, like Gecko) Chrome/99.0.4844.51 Safari/537.36 Edg/99.0.1150.39" etag="DJoRtk2rFVW1dkVmKXAo" version="17.1.3" type="github">
  <diagram id="C5RBs43oDa-KdzZeNtuy" name="Page-1">
    <mxGraphModel dx="856" dy="1714" grid="1" gridSize="10" guides="1" tooltips="1" connect="1" arrows="1" fold="1" page="1" pageScale="1" pageWidth="827" pageHeight="1169" math="0" shadow="0">
      <root>
        <mxCell id="WIyWlLk6GJQsqaUBKTNV-0" />
        <mxCell id="WIyWlLk6GJQsqaUBKTNV-1" parent="WIyWlLk6GJQsqaUBKTNV-0" />
        <mxCell id="Nf2Usp9G2EIKr0mQx5S_-0" value="" style="edgeStyle=orthogonalEdgeStyle;shape=connector;rounded=0;orthogonalLoop=1;jettySize=auto;html=1;shadow=0;labelBackgroundColor=none;fontFamily=Helvetica;fontSize=11;fontColor=default;endArrow=block;endFill=0;endSize=8;strokeColor=default;strokeWidth=1;" edge="1" parent="WIyWlLk6GJQsqaUBKTNV-1" source="Nf2Usp9G2EIKr0mQx5S_-1" target="Nf2Usp9G2EIKr0mQx5S_-19">
          <mxGeometry relative="1" as="geometry" />
        </mxCell>
        <mxCell id="Nf2Usp9G2EIKr0mQx5S_-1" value="开始" style="ellipse;whiteSpace=wrap;html=1;" vertex="1" parent="WIyWlLk6GJQsqaUBKTNV-1">
          <mxGeometry x="120" y="83.5" width="78" height="43" as="geometry" />
        </mxCell>
        <mxCell id="Nf2Usp9G2EIKr0mQx5S_-33" value="" style="edgeStyle=orthogonalEdgeStyle;rounded=0;orthogonalLoop=1;jettySize=auto;html=1;" edge="1" parent="WIyWlLk6GJQsqaUBKTNV-1" source="Nf2Usp9G2EIKr0mQx5S_-19" target="Nf2Usp9G2EIKr0mQx5S_-31">
          <mxGeometry relative="1" as="geometry" />
        </mxCell>
        <mxCell id="Nf2Usp9G2EIKr0mQx5S_-19" value="检索安全事件" style="rounded=1;whiteSpace=wrap;html=1;fontSize=12;glass=0;strokeWidth=1;shadow=0;" vertex="1" parent="WIyWlLk6GJQsqaUBKTNV-1">
          <mxGeometry x="233" y="85" width="104" height="40" as="geometry" />
        </mxCell>
        <mxCell id="Nf2Usp9G2EIKr0mQx5S_-35" value="" style="edgeStyle=orthogonalEdgeStyle;rounded=0;orthogonalLoop=1;jettySize=auto;html=1;" edge="1" parent="WIyWlLk6GJQsqaUBKTNV-1" source="Nf2Usp9G2EIKr0mQx5S_-31" target="Nf2Usp9G2EIKr0mQx5S_-34">
          <mxGeometry relative="1" as="geometry" />
        </mxCell>
        <mxCell id="Nf2Usp9G2EIKr0mQx5S_-31" value="时间序列分析" style="rounded=1;whiteSpace=wrap;html=1;fontSize=12;glass=0;strokeWidth=1;shadow=0;" vertex="1" parent="WIyWlLk6GJQsqaUBKTNV-1">
          <mxGeometry x="400" y="85" width="87" height="40" as="geometry" />
        </mxCell>
        <mxCell id="Nf2Usp9G2EIKr0mQx5S_-41" style="edgeStyle=orthogonalEdgeStyle;rounded=0;orthogonalLoop=1;jettySize=auto;html=1;entryX=0;entryY=0.5;entryDx=0;entryDy=0;" edge="1" parent="WIyWlLk6GJQsqaUBKTNV-1" source="Nf2Usp9G2EIKr0mQx5S_-32" target="Nf2Usp9G2EIKr0mQx5S_-34">
          <mxGeometry relative="1" as="geometry" />
        </mxCell>
        <mxCell id="Nf2Usp9G2EIKr0mQx5S_-32" value="威胁情报分析" style="rounded=1;whiteSpace=wrap;html=1;fontSize=12;glass=0;strokeWidth=1;shadow=0;" vertex="1" parent="WIyWlLk6GJQsqaUBKTNV-1">
          <mxGeometry x="400" y="200" width="87" height="40" as="geometry" />
        </mxCell>
        <mxCell id="Nf2Usp9G2EIKr0mQx5S_-43" value="" style="edgeStyle=orthogonalEdgeStyle;rounded=0;orthogonalLoop=1;jettySize=auto;html=1;" edge="1" parent="WIyWlLk6GJQsqaUBKTNV-1" source="Nf2Usp9G2EIKr0mQx5S_-34" target="Nf2Usp9G2EIKr0mQx5S_-42">
          <mxGeometry relative="1" as="geometry" />
        </mxCell>
        <mxCell id="Nf2Usp9G2EIKr0mQx5S_-46" value="" style="edgeStyle=orthogonalEdgeStyle;rounded=0;orthogonalLoop=1;jettySize=auto;html=1;" edge="1" parent="WIyWlLk6GJQsqaUBKTNV-1" source="Nf2Usp9G2EIKr0mQx5S_-34" target="Nf2Usp9G2EIKr0mQx5S_-45">
          <mxGeometry relative="1" as="geometry" />
        </mxCell>
        <mxCell id="Nf2Usp9G2EIKr0mQx5S_-34" value="攻击成功？" style="rhombus;whiteSpace=wrap;html=1;" vertex="1" parent="WIyWlLk6GJQsqaUBKTNV-1">
          <mxGeometry x="560" y="65" width="80" height="80" as="geometry" />
        </mxCell>
        <mxCell id="Nf2Usp9G2EIKr0mQx5S_-40" style="edgeStyle=orthogonalEdgeStyle;rounded=0;orthogonalLoop=1;jettySize=auto;html=1;entryX=0;entryY=0.5;entryDx=0;entryDy=0;" edge="1" parent="WIyWlLk6GJQsqaUBKTNV-1" source="Nf2Usp9G2EIKr0mQx5S_-37" target="Nf2Usp9G2EIKr0mQx5S_-34">
          <mxGeometry relative="1" as="geometry" />
        </mxCell>
        <mxCell id="Nf2Usp9G2EIKr0mQx5S_-37" value="攻击链路分析" style="rounded=1;whiteSpace=wrap;html=1;fontSize=12;glass=0;strokeWidth=1;shadow=0;" vertex="1" parent="WIyWlLk6GJQsqaUBKTNV-1">
          <mxGeometry x="400" y="-30" width="87" height="40" as="geometry" />
        </mxCell>
        <mxCell id="Nf2Usp9G2EIKr0mQx5S_-38" value="" style="edgeStyle=orthogonalEdgeStyle;rounded=0;orthogonalLoop=1;jettySize=auto;html=1;entryX=0;entryY=0.5;entryDx=0;entryDy=0;exitX=1;exitY=0.5;exitDx=0;exitDy=0;" edge="1" parent="WIyWlLk6GJQsqaUBKTNV-1" source="Nf2Usp9G2EIKr0mQx5S_-19" target="Nf2Usp9G2EIKr0mQx5S_-37">
          <mxGeometry relative="1" as="geometry">
            <mxPoint x="380" y="115" as="sourcePoint" />
            <mxPoint x="410" y="115" as="targetPoint" />
          </mxGeometry>
        </mxCell>
        <mxCell id="Nf2Usp9G2EIKr0mQx5S_-39" value="" style="edgeStyle=orthogonalEdgeStyle;rounded=0;orthogonalLoop=1;jettySize=auto;html=1;exitX=1;exitY=0.5;exitDx=0;exitDy=0;entryX=0;entryY=0.5;entryDx=0;entryDy=0;" edge="1" parent="WIyWlLk6GJQsqaUBKTNV-1" source="Nf2Usp9G2EIKr0mQx5S_-19" target="Nf2Usp9G2EIKr0mQx5S_-32">
          <mxGeometry relative="1" as="geometry">
            <mxPoint x="390" y="125" as="sourcePoint" />
            <mxPoint x="420" y="125" as="targetPoint" />
          </mxGeometry>
        </mxCell>
        <mxCell id="Nf2Usp9G2EIKr0mQx5S_-50" value="" style="edgeStyle=orthogonalEdgeStyle;rounded=0;orthogonalLoop=1;jettySize=auto;html=1;entryX=0;entryY=0.5;entryDx=0;entryDy=0;" edge="1" parent="WIyWlLk6GJQsqaUBKTNV-1" source="Nf2Usp9G2EIKr0mQx5S_-42" target="Nf2Usp9G2EIKr0mQx5S_-51">
          <mxGeometry relative="1" as="geometry" />
        </mxCell>
        <mxCell id="Nf2Usp9G2EIKr0mQx5S_-42" value="事件编辑：标记为攻击成功" style="rounded=1;whiteSpace=wrap;html=1;fontSize=12;glass=0;strokeWidth=1;shadow=0;" vertex="1" parent="WIyWlLk6GJQsqaUBKTNV-1">
          <mxGeometry x="680" y="85" width="104" height="40" as="geometry" />
        </mxCell>
        <mxCell id="Nf2Usp9G2EIKr0mQx5S_-45" value="事件编辑：标记为攻击失败" style="rounded=1;whiteSpace=wrap;html=1;fontSize=12;glass=0;strokeWidth=1;shadow=0;" vertex="1" parent="WIyWlLk6GJQsqaUBKTNV-1">
          <mxGeometry x="548" y="200" width="104" height="40" as="geometry" />
        </mxCell>
        <mxCell id="Nf2Usp9G2EIKr0mQx5S_-47" value="Yes" style="text;html=1;align=center;verticalAlign=middle;resizable=0;points=[];autosize=1;strokeColor=none;fillColor=none;" vertex="1" parent="WIyWlLk6GJQsqaUBKTNV-1">
          <mxGeometry x="635" y="80" width="30" height="20" as="geometry" />
        </mxCell>
        <mxCell id="Nf2Usp9G2EIKr0mQx5S_-48" value="No" style="text;html=1;align=center;verticalAlign=middle;resizable=0;points=[];autosize=1;strokeColor=none;fillColor=none;" vertex="1" parent="WIyWlLk6GJQsqaUBKTNV-1">
          <mxGeometry x="595" y="150" width="30" height="20" as="geometry" />
        </mxCell>
        <mxCell id="Nf2Usp9G2EIKr0mQx5S_-49" value="结束" style="ellipse;whiteSpace=wrap;html=1;" vertex="1" parent="WIyWlLk6GJQsqaUBKTNV-1">
          <mxGeometry x="950" y="83.5" width="78" height="43" as="geometry" />
        </mxCell>
        <mxCell id="Nf2Usp9G2EIKr0mQx5S_-52" value="" style="edgeStyle=orthogonalEdgeStyle;rounded=0;orthogonalLoop=1;jettySize=auto;html=1;" edge="1" parent="WIyWlLk6GJQsqaUBKTNV-1" source="Nf2Usp9G2EIKr0mQx5S_-51" target="Nf2Usp9G2EIKr0mQx5S_-49">
          <mxGeometry relative="1" as="geometry" />
        </mxCell>
        <mxCell id="Nf2Usp9G2EIKr0mQx5S_-51" value="事件处置通知" style="rounded=1;whiteSpace=wrap;html=1;fontSize=12;glass=0;strokeWidth=1;shadow=0;" vertex="1" parent="WIyWlLk6GJQsqaUBKTNV-1">
          <mxGeometry x="810" y="85" width="104" height="40" as="geometry" />
        </mxCell>
      </root>
    </mxGraphModel>
  </diagram>
</mxfile>
